<svg id="Icon_-_Home" data-name="Icon - Home" xmlns="http://www.w3.org/2000/svg" xmlns:xlink="http://www.w3.org/1999/xlink" width="24" height="24" viewBox="0 0 24 24">
  <defs>
    <clipPath id="clip-path">
      <rect id="Icon_-_Home_Background_Mask_" data-name="Icon - Home (Background/Mask)" width="24" height="24" fill="none"/>
    </clipPath>
  </defs>
  <rect id="Icon_-_Home_Background_Mask_2" data-name="Icon - Home (Background/Mask)" width="24" height="24" fill="none"/>
  <g id="Icon_-_Home-2" data-name="Icon - Home" clip-path="url(#clip-path)">
    <path id="Vector" d="M10.537,22c-1.867,0-3.461,0-4.769-.134A6.964,6.964,0,0,1,2.35,20.777,5.085,5.085,0,0,1,.457,17.755,20.819,20.819,0,0,1,0,12.713C0,9.935.134,8.357.852,7.1A6.9,6.9,0,0,1,2.234,5.474c.235-.217.495-.445.772-.69l.134-.118c.332-.293.7-.615,1.1-.989l.053-.046c.2-.163.445-.368.712-.6.579-.491,1.277-1.085,1.966-1.579A6.533,6.533,0,0,1,10.558,0a6.647,6.647,0,0,1,3.606,1.447c.724.513,1.45,1.123,2.046,1.625.249.211.476.4.671.559l.053.045c.4.374.767.7,1.1.989l.133.118c.278.244.538.473.773.69A6.877,6.877,0,0,1,20.32,7.1c.718,1.255.851,2.834.851,5.611a20.819,20.819,0,0,1-.457,5.042,5.079,5.079,0,0,1-1.892,3.021A6.97,6.97,0,0,1,15.4,21.866C14.1,22,12.5,22,10.634,22Z" transform="translate(1.4 1)" fill="#93278f"/>
  </g>
</svg>
