<svg xmlns="http://www.w3.org/2000/svg" width="15.025" height="13.66" viewBox="0 0 15.025 13.66">
  <g id="Comment" transform="translate(-0.246 -0.137)">
    <path id="Shape" d="M3.415,13.66A1.025,1.025,0,0,1,2.39,12.634v-1.1a3.057,3.057,0,0,1-2.39-3V3.073A3.077,3.077,0,0,1,3.074,0h8.878a3.077,3.077,0,0,1,3.074,3.073V8.536a3.077,3.077,0,0,1-3.074,3.074H6.112L4.1,13.4A1.025,1.025,0,0,1,3.415,13.66ZM3.074,1.024A2.052,2.052,0,0,0,1.024,3.073V8.536a2.052,2.052,0,0,0,2.049,2.049h.341v2.048l2.3-2.048h6.232A2.052,2.052,0,0,0,14,8.536V3.073a2.052,2.052,0,0,0-2.049-2.049Z" transform="translate(0.246 0.137)" fill="#fff"/>
    <circle id="Oval" cx="0.512" cy="0.512" r="0.512" transform="translate(7.246 5.429)" fill="#fff"/>
    <circle id="Oval-2" data-name="Oval" cx="0.512" cy="0.512" r="0.512" transform="translate(10.66 5.429)" fill="#fff"/>
    <circle id="Oval-3" data-name="Oval" cx="0.512" cy="0.512" r="0.512" transform="translate(3.872 5.429)" fill="#fff"/>
  </g>
</svg>
