<svg xmlns="http://www.w3.org/2000/svg" width="10.926" height="10.662" viewBox="0 0 10.926 10.662">
  <path id="Icon" d="M9.593,10.662H4.531a.8.8,0,0,1-.443-.133l-1.157-.77v.1a.8.8,0,0,1-.8.8H.8a.8.8,0,0,1-.8-.8V4a.8.8,0,0,1,.8-.8H2.132a.8.8,0,0,1,.738.5L4.1,3.3l.962-.962V1.6A1.444,1.444,0,0,1,6.4,0,1.444,1.444,0,0,1,7.728,1.6V3.464H9.593A1.334,1.334,0,0,1,10.926,4.8v.269a.8.8,0,0,0,0,.8v.8a.8.8,0,0,0,0,.8v.8a.8.8,0,0,0,0,.8v.266A1.334,1.334,0,0,1,9.593,10.662ZM6.4.8c-.527,0-.533.792-.533.8V2.665L4.531,4l-1.6.517v4.28l1.6,1.066H9.593a.533.533,0,0,0,.533-.533V9.06h-.4a.4.4,0,0,1,0-.8h.4v-.8h-.4a.4.4,0,0,1,0-.8h.4v-.8h-.4a.4.4,0,1,1,0-.8h.4V4.8a.534.534,0,0,0-.533-.534H6.928V1.6C6.928,1.591,6.922.8,6.4.8ZM.8,4V9.859H2.132V4Z" transform="translate(0)" fill="#fff"/>
</svg>
