<svg xmlns="http://www.w3.org/2000/svg" width="22.012" height="20.544" viewBox="0 0 22.012 20.544">
  <path id="Path_33" data-name="Path 33" d="M6.8,70.006A3.952,3.952,0,0,0,3.76,71.474H2.224a2.628,2.628,0,0,1-1.582-.464A1.571,1.571,0,0,1,0,69.651Q0,65.6,1.422,65.6a2.188,2.188,0,0,1,.5.241,7.54,7.54,0,0,0,1.118.487,4.024,4.024,0,0,0,1.364.246,4.606,4.606,0,0,0,1.525-.264,5.715,5.715,0,0,0-.057.757A5.048,5.048,0,0,0,6.8,70.006Zm12.278,7.3a2.857,2.857,0,0,1-.837,2.173,3.092,3.092,0,0,1-2.224.8H6a3.092,3.092,0,0,1-2.224-.8,2.857,2.857,0,0,1-.837-2.173q0-.608.04-1.187a11.676,11.676,0,0,1,.161-1.25,9.717,9.717,0,0,1,.3-1.244,5.893,5.893,0,0,1,.493-1.118,4.031,4.031,0,0,1,.711-.929,2.991,2.991,0,0,1,.98-.613A3.443,3.443,0,0,1,6.9,70.74a1.351,1.351,0,0,1,.493.246q.378.246.837.55a5.025,5.025,0,0,0,1.227.55,4.982,4.982,0,0,0,3.1,0,5.025,5.025,0,0,0,1.227-.55q.459-.3.837-.55a1.351,1.351,0,0,1,.493-.246,3.443,3.443,0,0,1,1.278.229,2.991,2.991,0,0,1,.98.613,4.031,4.031,0,0,1,.711.929,5.893,5.893,0,0,1,.493,1.118,9.717,9.717,0,0,1,.3,1.244,11.676,11.676,0,0,1,.161,1.25q.04.579.04,1.187ZM7.337,62.669a2.828,2.828,0,0,1-.86,2.075A2.828,2.828,0,0,1,4.4,65.6a2.828,2.828,0,0,1-2.075-.86,2.934,2.934,0,0,1,0-4.15,2.828,2.828,0,0,1,2.075-.86,2.828,2.828,0,0,1,2.075.86A2.828,2.828,0,0,1,7.337,62.669Zm8.071,4.4a4.4,4.4,0,0,1-4.4,4.4,4.4,4.4,0,0,1,0-8.8,4.4,4.4,0,0,1,4.4,4.4Zm6.6,2.58a1.571,1.571,0,0,1-.642,1.359,2.628,2.628,0,0,1-1.582.464H18.251a3.953,3.953,0,0,0-3.038-1.467,5.048,5.048,0,0,0,.929-2.935,5.715,5.715,0,0,0-.057-.757,4.606,4.606,0,0,0,1.525.264,4.024,4.024,0,0,0,1.364-.246,7.539,7.539,0,0,0,1.118-.487,2.187,2.187,0,0,1,.5-.241Q22.012,65.6,22.012,69.651Zm-1.467-6.982a2.935,2.935,0,0,1-5.01,2.075,2.935,2.935,0,1,1,4.15-4.15A2.828,2.828,0,0,1,20.544,62.669Z" transform="translate(0 -59.734)" fill="#a7a7a7"/>
</svg>
